<?xml version="1.0" encoding="UTF-8" standalone="no"?>
<!DOCTYPE svg PUBLIC "-//W3C//DTD SVG 1.1//EN" "http://www.w3.org/Graphics/SVG/1.1/DTD/svg11.dtd">
<svg xmlns="http://www.w3.org/2000/svg" version="1.1" viewBox="0 0 768 768">
<g fill="#ffffff">
<path d="
  M 640.89 168.55
  Q 537.29 142.62 433.50 117.51
  Q 392.12 107.50 340.11 96.15
  Q 332.99 94.60 327.63 94.57
  C 299.66 94.40 284.66 108.31 272.47 131.96
  C 253.47 168.82 240.77 208.77 231.17 248.98
  C 217.83 304.82 202.41 359.87 181.64 413.46
  Q 170.73 441.58 156.65 468.05
  A 1.00 1.00 0.0 0 0 157.12 469.43
  L 388.80 574.73
  A 1.01 1.01 0.0 0 1 389.16 576.28
  Q 373.30 595.53 360.46 617.21
  Q 354.99 626.44 355.35 635.76
  Q 355.95 651.34 362.86 665.31
  A 1.01 1.01 0.0 0 0 363.52 665.83
  Q 406.97 676.60 445.11 656.55
  C 475.51 640.56 495.82 612.18 508.35 580.83
  Q 521.68 547.47 531.72 512.97
  A 1.00 1.00 0.0 0 1 532.68 512.25
  L 560.87 512.25
  A 1.00 1.00 0.0 0 1 561.83 513.52
  Q 550.46 553.25 535.44 591.73
  C 508.09 661.80 441.39 722.69 360.56 695.80
  Q 354.50 693.79 342.06 688.23
  Q 208.40 628.54 74.45 569.52
  Q 62.10 564.09 56.58 560.60
  C 28.20 542.68 6.94 505.22 25.86 472.50
  C 36.51 454.10 56.42 443.40 77.55 443.18
  C 93.88 443.01 113.52 450.35 128.65 456.96
  A 1.00 0.99 25.7 0 0 129.93 456.52
  C 148.30 422.35 162.02 385.91 173.73 348.99
  Q 187.74 304.79 198.66 259.73
  Q 203.57 239.46 208.90 219.29
  Q 218.10 184.49 234.68 144.44
  C 247.14 114.34 262.65 84.20 293.48 71.63
  C 307.80 65.79 327.59 63.87 342.89 67.15
  Q 381.70 75.47 406.19 81.29
  Q 581.99 123.04 697.74 153.26
  Q 714.94 157.75 729.04 170.07
  C 746.40 185.22 753.23 205.26 747.04 228.29
  C 729.97 291.81 661.22 290.39 610.88 278.08
  A 1.05 1.02 41.9 0 0 610.35 278.10
  L 581.29 286.93
  A 1.00 1.00 0.0 0 1 580.01 285.85
  Q 581.29 275.89 582.57 265.92
  C 586.98 231.31 595.85 199.26 626.71 178.70
  Q 633.62 174.10 641.09 170.42
  Q 643.54 169.21 640.89 168.55
  Z
  M 628.21 216.96
  Q 616.23 230.27 614.06 248.04
  A 1.02 1.00 10.5 0 0 614.82 249.13
  C 644.95 256.61 704.85 266.39 717.36 225.06
  C 722.51 208.03 719.94 192.35 700.28 187.89
  Q 693.59 186.37 687.26 186.98
  Q 652.14 190.40 628.21 216.96
  Z
  M 256.40 618.40
  Q 291.47 633.96 326.11 649.38
  Q 327.84 650.16 327.50 648.29
  Q 324.01 629.50 330.56 612.25
  Q 332.71 606.57 337.54 599.45
  Q 341.40 593.76 345.50 588.23
  A 1.00 1.00 0.0 0 0 345.12 586.72
  Q 238.11 538.03 131.06 489.45
  Q 110.79 480.26 91.78 474.63
  Q 82.29 471.82 76.38 472.10
  C 62.90 472.74 48.92 482.71 47.76 496.89
  C 46.30 514.62 63.49 533.02 78.24 539.53
  Q 167.35 578.89 256.40 618.40
  Z"
/>
<path d="
  M 411.16 397.86
  Q 409.77 396.48 411.73 396.49
  L 462.71 396.49
  A 1.00 1.00 0.0 0 1 463.71 397.44
  L 464.81 416.70
  A 1.00 1.00 0.0 0 1 463.81 417.76
  L 423.97 417.73
  A 1.01 1.00 80.7 0 1 423.02 417.04
  Q 419.40 405.96 411.16 397.86
  Z"
/>
</g>
<g fill="#ffffff">
<path d="
  M 358.79 420.72
  C 336.22 411.19 301.20 403.43 292.32 376.81
  C 285.35 355.93 296.15 333.72 313.47 321.82
  C 347.24 298.64 400.48 306.49 428.37 336.28
  A 1.01 1.00 -46.1 0 1 428.39 337.63
  L 406.54 362.27
  A 1.01 1.00 43.5 0 1 405.07 362.30
  Q 386.26 343.05 358.23 340.99
  C 347.15 340.17 329.18 344.72 329.56 359.25
  C 329.79 367.90 341.23 372.98 348.18 375.65
  C 378.56 387.31 422.67 399.07 414.35 442.60
  C 408.89 471.14 382.33 488.48 354.31 490.41
  C 322.86 492.57 288.69 483.37 266.80 458.75
  A 1.00 0.99 -46.2 0 1 266.78 457.44
  L 288.54 431.66
  A 1.00 1.00 0.0 0 1 290.07 431.66
  Q 297.38 440.37 305.89 445.62
  C 321.90 455.50 362.10 467.93 373.54 445.51
  C 380.19 432.47 369.12 425.08 358.79 420.72
  Z"
/>
<path d="
  M 514.47 435.57
  L 574.35 311.56
  A 1.00 0.99 12.7 0 1 575.25 311.00
  L 602.98 311.00
  A 1.00 1.00 0.0 0 1 603.98 311.96
  L 609.06 435.29
  Q 609.19 438.60 610.58 435.59
  L 667.88 311.58
  A 1.00 1.00 0.0 0 1 668.79 311.00
  L 709.62 311.00
  A 1.00 1.00 0.0 0 1 710.51 312.45
  L 622.46 486.95
  A 1.01 0.99 -76.3 0 1 621.57 487.50
  L 583.22 487.50
  A 1.01 1.00 88.8 0 1 582.22 486.53
  L 578.16 369.62
  Q 578.05 366.33 576.64 369.31
  L 520.99 486.93
  A 1.00 1.00 0.0 0 1 520.09 487.50
  L 481.72 487.50
  A 1.00 1.00 0.0 0 1 480.72 486.56
  L 469.22 312.06
  A 1.00 0.99 -1.9 0 1 470.22 311.00
  L 509.42 311.00
  A 1.00 1.00 0.0 0 1 510.42 311.98
  L 512.95 435.24
  Q 513.01 438.58 514.47 435.57
  Z"
/>
</g>
</svg>
