<svg xmlns="http://www.w3.org/2000/svg" viewBox="0 0 1448 1448"><g fill="none" stroke-width="2"><path stroke="#b529bc" d="M857.5 96.04q-.77.73-4.31 3.15-282.35 192.89-564.78 385.87-2.55 1.75-.81 4.3 283.78 415.46 568.21 831.08 1.25 1.82 1.19 3.1" vector-effect="non-scaling-stroke"/><path stroke="#8d0f82" d="M930.04 122.5Q725.32 262.21 361.06 511.31c-2.4 1.64-2.18 3.39-.63 5.65q284.31 415.97 568.74 831.87.36.53.04 1.17" vector-effect="non-scaling-stroke"/><path stroke="#ae88bf" d="M1002.25 148.71C814.15 278.23 625.2 406.57 436.54 535.28q-2.29 1.56-4.26 3.33-1.52 1.36-.6 3.19 1.24 2.45 2.78 4.71 283.85 414.9 567.52 829.92" vector-effect="non-scaling-stroke"/><path stroke="#d6a2f9" d="M728.79 608.42 764 660.04" vector-effect="non-scaling-stroke"/><path stroke="#ae88bf" d="M799.36 711.94q11.75 17.82 32.45 47.75c3.13 4.51 5.57 2.03 9.26-.5q106.54-72.87 159.62-109.5 1.93-1.34 3.77-1.44" vector-effect="non-scaling-stroke"/><path stroke="#b529bc" d="M930.5 545.71 764 660.04" vector-effect="non-scaling-stroke"/><path stroke="#8d0f82" d="M1002.34 572.18 799.36 711.94" vector-effect="non-scaling-stroke"/></g><path fill="#ad45f3" d="M857.5 96.04q-.77.73-4.31 3.15-282.35 192.89-564.78 385.87-2.55 1.75-.81 4.3 283.78 415.46 568.21 831.08 1.25 1.82 1.19 3.1l-70.47-25.93a1.56 1.53 82.5 0 1-.74-.58q-285.01-416.34-569.6-832.97c-2.18-3.18-1.3-4.52 1.64-6.53Q496.59 267.08 775.28 76.52q4.63-3.17 9.78-6.31a2.51 2.47-50.3 0 1 2.17-.22l70.27 26.05Z"/><path fill="#bc0c84" d="m857.5 96.04 72.54 26.46Q725.32 262.21 361.06 511.31c-2.4 1.64-2.18 3.39-.63 5.65q284.31 415.97 568.74 831.87.36.53.04 1.17L857 1323.54q.06-1.28-1.19-3.1Q571.38 904.82 287.6 489.36q-1.74-2.55.81-4.3Q570.84 292.08 853.19 99.19q3.54-2.42 4.31-3.15Z"/><path fill="#5d117f" d="m930.04 122.5 72.21 26.21C814.15 278.23 625.2 406.57 436.54 535.28q-2.29 1.56-4.26 3.33-1.52 1.36-.6 3.19 1.24 2.45 2.78 4.71 283.85 414.9 567.52 829.92-36.84-12.71-72.77-26.43.32-.64-.04-1.17-284.43-415.9-568.74-831.87c-1.55-2.26-1.77-4.01.63-5.65q364.26-249.1 568.98-388.81Z"/><path fill="#fff" d="M1002.25 148.71c1.94.19 3.22 1.21 3.31 3.31q.2 4.58.19 12.98-.07 51.53.24 179.55c.02 11.08-2.04 12.49-10.19 18.04q-146.82 99.94-293.74 199.72c-3.16 2.15-1.82 4.71-.04 7.37q13.01 19.45 26.77 38.74L764 660.04l35.36 51.9q11.75 17.82 32.45 47.75c3.13 4.51 5.57 2.03 9.26-.5q106.54-72.87 159.62-109.5 1.93-1.34 3.77-1.44.66 63.13.99 126.25c.12 23.3.55 46.59.35 69.9-.08 9.36-1.4 13.72-8.8 18.85q-50.89 35.27-61.19 42.31-3.29 2.26-1.1 5.53 33.75 50.19 67.16 100.6c2.52 3.81 2.8 6.42 2.88 10.81q3.17 182.43-.23 352.65c-.03 1.59-.7 3.57-2.54 1.28Q718.31 961.41 434.46 546.51q-1.54-2.26-2.78-4.71-.92-1.83.6-3.19 1.97-1.77 4.26-3.33c188.66-128.71 377.61-257.05 565.71-386.57Z"/><path fill="#ad45f3" d="M930.5 545.71 764 660.04l-35.21-51.62 129.18-88.89a1.76 1.71-51.3 0 1 1.6-.2l70.93 26.38Z"/><path fill="#bc0c84" d="m930.5 545.71 71.84 26.47-202.98 139.76-35.36-51.9 166.5-114.33Z"/><path fill="#5d117f" d="M1002.34 572.18q1.12-.15 1.16 1.07 1.03 29.53.96 75-1.84.1-3.77 1.44-53.08 36.63-159.62 109.5c-3.69 2.53-6.13 5.01-9.26.5q-20.7-29.93-32.45-47.75l202.98-139.76Z"/></svg>