<svg xmlns="http://www.w3.org/2000/svg" viewBox="0 0 1024 1024"><g fill="none" stroke-width="2"><path stroke="#b529bc" d="M612.67 31.1q-129.65 89.16-259.74 177.63-76.58 52.08-153.2 104.1c-10.1 6.86-7.9 10.58-1.58 19.76q204.52 297.04 406.9 595.54c2.99 4.41 4.77 7.79 9.25 11.05q1.51 1.1.2 1.86" vector-effect="non-scaling-stroke"/><path stroke="#8d0f82" d="M644.8 39.75Q434.89 183.88 224.81 327.81c-2.79 1.92-1.85 4.74-.17 7.22q210.28 308.81 420.6 617.59c.51.74 1.19.97.97 2.13" vector-effect="non-scaling-stroke"/><path stroke="#ae88bf" d="M686.5 50.71c-138.22 94.3-275.97 189.3-413.99 283.89-3.79 2.59-13.21 6.49-9.2 12.34q194.44 283.69 388.88 567.37 25.77 37.6 34.27 49.69" vector-effect="non-scaling-stroke"/><path stroke="#ae88bf" d="m550.41 484.6 19.36 25.03a.29.29 54.3 0 0 .4.07l115.11-79.85" vector-effect="non-scaling-stroke"/></g><path fill="#ad45f3" d="M612.67 31.1q-129.65 89.16-259.74 177.63-76.58 52.08-153.2 104.1c-10.1 6.86-7.9 10.58-1.58 19.76q204.52 297.04 406.9 595.54c2.99 4.41 4.77 7.79 9.25 11.05q1.51 1.1.2 1.86-13.29-5.71-26.56-11.49c-2.42-1.06-3.16-2.48-4.58-4.51-5.38-7.64-11.06-16.58-15.63-23.25Q369.7 612.75 172.77 322.97c-6.85-10.09-4.22-13.9 4.72-20.08Q380.1 162.75 583.04 23.96a2.89 2.62-52.6 0 1 2.29-.42l27.34 7.56Z"/><path fill="#bc0c84" d="M612.67 31.1q15.19 3.25 32.13 8.65-209.91 144.13-419.99 288.06c-2.79 1.92-1.85 4.74-.17 7.22q210.28 308.81 420.6 617.59c.51.74 1.19.97.97 2.13l-31.71-13.71q1.31-.76-.2-1.86c-4.48-3.26-6.26-6.64-9.25-11.05q-202.38-298.5-406.9-595.54c-6.32-9.18-8.52-12.9 1.58-19.76q76.62-52.02 153.2-104.1Q483.02 120.26 612.67 31.1Z"/><path fill="#5d117f" d="M644.8 39.75q20.51 4.78 41.7 10.96c-138.22 94.3-275.97 189.3-413.99 283.89-3.79 2.59-13.21 6.49-9.2 12.34q194.44 283.69 388.88 567.37 25.77 37.6 34.27 49.69l.04 7.49a.66.65 11.7 0 1-.92.6l-39.37-17.34c.22-1.16-.46-1.39-.97-2.13q-210.32-308.78-420.6-617.59c-1.68-2.48-2.62-5.3.17-7.22Q434.89 183.88 644.8 39.75Z"/><path fill="#fff" d="M686.5 50.71q.5.23.5 1.04v151.86a2.24 2.24-17.5 0 1-.96 1.84q-105.8 72.91-211.23 145.61c-10.38 7.17-12.47 15.96-4.62 26.47q2.11 2.82 2.15 2.88c14.14 20.28 28.24 40.52 43.56 59.82l18.6 23.81 15.91 20.56 19.36 25.03a.29.29 54.3 0 0 .4.07l115.11-79.85q1.22.27 1.22 2.4v151.37a1.76 1.75 73.2 0 1-.78 1.46q-18.23 12.1-36.91 23.98c-6.87 4.37-10.34 14.88-5.5 21.88 14.21 20.54 29.58 40.15 42.43 61.54a5.36 5.36 29.6 0 1 .76 2.75L686.46 964q-8.5-12.09-34.27-49.69-194.44-283.68-388.88-567.37c-4.01-5.85 5.41-9.75 9.2-12.34C410.53 240.01 548.28 145.01 686.5 50.71Z"/><path fill="#ad45f3" d="m616.22 402.27-81.72 61.77-18.6-23.81 73.99-48.4a.99.97-50.3 0 1 .9-.09l25.43 10.53Z"/><path fill="#bc0c84" d="M616.22 402.27q15.27 5.54 31.11 12.38l-96.92 69.95-15.91-20.56 81.72-61.77Z"/><path fill="#5d117f" d="m647.33 414.65 37.95 15.2-115.11 79.85a.29.29 54.3 0 1-.4-.07l-19.36-25.03 96.92-69.95Z"/></svg>